HIERARCHY
ROOT lpalm
{
	OFFSET	0.000000	0.000000	0.000000
	CHANNELS	6	Xposition	Yposition	Zposition	Zrotation	Xrotation	Yrotation
	JOINT lthumbA
	{
		OFFSET	-6.570000	-2.200000	3.500000
		CHANNELS	3	Zrotation	Xrotation	Yrotation
		JOINT lthumbB
		{
			OFFSET	0.000000	0.000000	7.000000
			CHANNELS	3	Zrotation	Xrotation	Yrotation
			JOINT lthumbC
			{
				OFFSET	0.000000	0.000000	3.800000
				CHANNELS	3	Zrotation	Xrotation	Yrotation
				End Site
				{
					OFFSET	0.000000	0.000000	3.000000
				}
			}
		}
	}
	JOINT lindexA
	{
		OFFSET	-2.730000	0.000000	10.400000
		CHANNELS	3	Zrotation	Xrotation	Yrotation
		JOINT lindexB
		{
			OFFSET	0.000000	0.000000	4.600000
			CHANNELS	3	Zrotation	Xrotation	Yrotation
			JOINT lindexC
			{
				OFFSET	0.000000	0.000000	3.000000
				CHANNELS	3	Zrotation	Xrotation	Yrotation
				End Site
				{
					OFFSET	0.000000	0.000000	2.600000
				}
			}
		}
	}
	JOINT lmiddleA
	{
		OFFSET	-0.610000	0.000000	10.000000
		CHANNELS	3	Zrotation	Xrotation	Yrotation
		JOINT lmiddleB
		{
			OFFSET	0.000000	0.000000	5.100000
			CHANNELS	3	Zrotation	Xrotation	Yrotation
			JOINT lmiddleC
			{
				OFFSET	0.000000	0.000000	3.100000
				CHANNELS	3	Zrotation	Xrotation	Yrotation
				End Site
				{
					OFFSET	0.000000	0.000000	2.800000
				}
			}
		}
	}
	JOINT lringA
	{
		OFFSET	1.880000	0.000000	9.700000
		CHANNELS	3	Zrotation	Xrotation	Yrotation
		JOINT lringB
		{
			OFFSET	0.000000	0.000000	4.800000
			CHANNELS	3	Zrotation	Xrotation	Yrotation
			JOINT lringC
			{
				OFFSET	0.000000	0.000000	3.000000
				CHANNELS	3	Zrotation	Xrotation	Yrotation
				End Site
				{
					OFFSET	0.000000	0.000000	2.700000
				}
			}
		}
	}
	JOINT llittleA
	{
		OFFSET	3.540000	0.000000	8.600000
		CHANNELS	3	Zrotation	Xrotation	Yrotation
		JOINT llittleB
		{
			OFFSET	0.000000	0.000000	3.800000
			CHANNELS	3	Zrotation	Xrotation	Yrotation
			JOINT llittleC
			{
				OFFSET	0.000000	0.000000	2.300000
				CHANNELS	3	Zrotation	Xrotation	Yrotation
				End Site
				{
					OFFSET	0.000000	0.000000	2.400000
				}
			}
		}
	}
}
MOTION
Frames:	25
Frame Time:	0.013676
0.00	0.00	0.00	0.47	18.33	-1.40	21.94	15.86	-18.69	-14.97	-0.88	3.30	0.00	0.00	15.32	0.00	14.44	-14.37	0.00	22.58	0.00	0.00	2.70	0.00	0.00	21.85	-0.18	0.00	20.71	0.00	0.00	2.69	0.00	0.00	23.38	4.46	0.00	25.42	0.00	0.00	2.30	0.00	0.00	23.80	5.69	0.00	23.23	0.00	0.00	0.00	0.00
0.00	0.00	0.00	0.47	18.33	-1.42	21.97	15.88	-18.70	-14.97	-0.88	3.30	0.00	0.00	15.32	0.00	14.44	-14.35	0.00	22.60	0.00	0.00	2.67	0.00	0.00	21.83	-0.17	0.00	20.73	0.00	0.00	2.66	0.00	0.00	23.40	4.46	0.00	25.44	0.00	0.00	2.27	0.00	0.00	23.82	5.68	0.00	23.23	0.00	0.00	0.00	0.00
0.00	0.00	0.00	0.48	18.33	-1.43	22.03	15.92	-18.73	-14.97	-0.89	3.31	0.00	0.00	15.31	0.00	14.42	-14.39	0.00	22.62	0.00	0.00	2.66	0.00	0.00	21.83	-0.16	0.00	20.76	0.00	0.00	2.64	0.00	0.00	23.40	4.47	0.00	25.40	0.00	0.00	2.30	0.00	0.00	23.81	5.69	0.00	23.23	0.00	0.00	0.00	0.00
0.00	0.00	0.00	0.46	18.36	-1.40	21.91	15.83	-18.69	-14.97	-0.88	3.29	0.00	0.00	15.32	0.00	14.41	-14.38	0.00	22.63	0.00	0.00	2.65	0.00	0.00	21.84	-0.17	0.00	20.75	0.00	0.00	2.64	0.00	0.00	23.38	4.48	0.00	25.44	0.00	0.00	2.25	0.00	0.00	23.78	5.70	0.00	23.23	0.00	0.00	0.00	0.00
0.00	0.00	0.00	0.46	18.33	-1.40	22.05	15.91	-18.77	-14.97	-0.89	3.32	0.00	0.00	15.32	0.00	14.44	-14.38	0.00	22.65	0.00	0.00	2.65	0.00	0.00	21.86	-0.17	0.00	20.75	0.00	0.00	2.66	0.00	0.00	23.40	4.47	0.00	25.44	0.00	0.00	2.30	0.00	0.00	23.82	5.70	0.00	23.21	0.00	0.00	0.00	0.00
0.00	0.00	0.00	0.46	18.33	-1.40	22.05	15.91	-18.77	-14.97	-0.89	3.32	0.00	0.00	15.32	0.00	14.44	-14.38	0.00	22.65	0.00	0.00	2.65	0.00	0.00	21.86	-0.17	0.00	20.75	0.00	0.00	2.66	0.00	0.00	23.40	4.47	0.00	25.44	0.00	0.00	2.30	0.00	0.00	23.82	5.70	0.00	23.21	0.00	0.00	0.00	0.00
0.00	0.00	0.00	0.46	18.32	-1.40	21.99	15.90	-18.69	-14.97	-0.90	3.34	0.00	0.00	15.31	0.00	14.41	-14.36	0.00	22.63	0.00	0.00	2.67	0.00	0.00	21.89	-0.15	0.00	20.75	0.00	0.00	2.66	0.00	0.00	23.41	4.46	0.00	25.42	0.00	0.00	2.28	0.00	0.00	23.84	5.69	0.00	23.23	0.00	0.00	0.00	0.00
0.00	0.00	0.00	0.46	18.36	-1.40	21.99	15.89	-18.68	-14.98	-0.87	3.26	0.00	0.00	15.32	0.00	14.42	-14.38	0.00	22.63	0.00	0.00	2.65	0.00	0.00	21.81	-0.17	0.00	20.75	0.00	0.00	2.64	0.00	0.00	23.39	4.47	0.00	25.40	0.00	0.00	2.27	0.00	0.00	23.80	5.71	0.00	23.23	0.00	0.00	0.00	0.00
0.00	0.00	0.00	0.46	18.36	-1.39	22.05	15.93	-18.70	-14.97	-0.89	3.31	0.00	0.00	15.32	0.00	14.39	-14.38	0.00	22.63	0.00	0.00	2.70	0.00	0.00	21.87	-0.16	0.00	20.76	0.00	0.00	2.66	0.00	0.00	23.35	4.49	0.00	25.44	0.00	0.00	2.27	0.00	0.00	23.81	5.71	0.00	23.23	0.00	0.00	0.00	0.00
0.00	0.00	0.00	0.46	18.38	-1.38	22.05	15.93	-18.68	-14.97	-0.89	3.31	0.00	0.00	15.34	0.00	14.42	-14.38	0.00	22.62	0.00	0.00	2.65	0.00	0.00	21.82	-0.16	0.00	20.75	0.00	0.00	2.64	0.00	0.00	23.36	4.49	0.00	25.44	0.00	0.00	2.27	0.00	0.00	23.79	5.71	0.00	23.23	0.00	0.00	0.00	0.00
0.00	0.00	0.00	0.46	18.35	-1.38	22.06	15.96	-18.65	-14.97	-0.89	3.31	0.00	0.00	15.32	0.00	14.46	-14.35	0.00	22.62	0.00	0.00	2.67	0.00	0.00	21.85	-0.17	0.00	20.71	0.00	0.00	2.66	0.00	0.00	23.40	4.48	0.00	25.42	0.00	0.00	2.30	0.00	0.00	23.82	5.70	0.00	23.23	0.00	0.00	0.00	0.00
0.00	0.00	0.00	0.45	18.35	-1.36	22.03	15.93	-18.65	-14.97	-0.88	3.28	0.00	0.00	15.34	0.00	14.46	-14.36	0.00	22.60	0.00	0.00	2.65	0.00	0.00	21.84	-0.17	0.00	20.73	0.00	0.00	2.66	0.00	0.00	23.36	4.50	0.00	25.42	0.00	0.00	2.28	0.00	0.00	23.81	5.69	0.00	23.23	0.00	0.00	0.00	0.00
0.00	0.00	0.00	0.45	18.37	-1.37	22.09	15.97	-18.67	-14.97	-0.88	3.28	0.00	0.00	15.35	0.00	14.40	-14.39	0.00	22.62	0.00	0.00	2.67	0.00	0.00	21.84	-0.15	0.00	20.71	0.00	0.00	2.61	0.00	0.00	23.38	4.50	0.00	25.44	0.00	0.00	2.27	0.00	0.00	23.81	5.71	0.00	23.27	0.00	0.00	0.00	0.00
0.00	0.00	0.00	0.45	18.38	-1.37	22.19	16.02	-18.74	-14.98	-0.87	3.24	0.00	0.00	15.35	0.00	14.44	-14.36	0.00	22.60	0.00	0.00	2.69	0.00	0.00	21.84	-0.17	0.00	20.75	0.00	0.00	2.66	0.00	0.00	23.41	4.47	0.00	25.40	0.00	0.00	2.30	0.00	0.00	23.80	5.70	0.00	23.27	0.00	0.00	0.00	0.00
0.00	0.00	0.00	0.46	18.38	-1.37	22.23	16.06	-18.72	-14.97	-0.88	3.27	0.00	0.00	15.36	0.00	14.44	-14.38	0.00	22.60	0.00	0.00	2.67	0.00	0.00	21.81	-0.15	0.00	20.75	0.00	0.00	2.69	0.00	0.00	23.38	4.49	0.00	25.44	0.00	0.00	2.27	0.00	0.00	23.81	5.70	0.00	23.25	0.00	0.00	0.00	0.00
0.00	0.00	0.00	0.46	18.40	-1.37	22.25	16.06	-18.74	-14.98	-0.87	3.24	0.00	0.00	15.36	0.00	14.42	-14.39	0.00	22.62	0.00	0.00	2.65	0.00	0.00	21.77	-0.14	0.00	20.73	0.00	0.00	2.66	0.00	0.00	23.34	4.51	0.00	25.42	0.00	0.00	2.28	0.00	0.00	23.79	5.70	0.00	23.23	0.00	0.00	0.00	0.00
0.00	0.00	0.00	0.46	18.40	-1.37	22.24	16.06	-18.73	-14.98	-0.87	3.24	0.00	0.00	15.36	0.00	14.45	-14.38	0.00	22.62	0.00	0.00	2.66	0.00	0.00	21.81	-0.16	0.00	20.78	0.00	0.00	2.66	0.00	0.00	23.37	4.50	0.00	25.44	0.00	0.00	2.27	0.00	0.00	23.81	5.70	0.00	23.23	0.00	0.00	0.00	0.00
0.00	0.00	0.00	0.45	18.42	-1.36	22.31	16.09	-18.78	-14.98	-0.86	3.23	0.00	0.00	15.37	0.00	14.40	-14.37	0.00	22.60	0.00	0.00	2.66	0.00	0.00	21.83	-0.17	0.00	20.73	0.00	0.00	2.66	0.00	0.00	23.39	4.51	0.00	25.44	0.00	0.00	2.25	0.00	0.00	23.75	5.71	0.00	23.23	0.00	0.00	0.00	0.00
0.00	0.00	0.00	0.45	18.47	-1.35	22.27	16.08	-18.69	-14.98	-0.86	3.21	0.00	0.00	15.37	0.00	14.37	-14.39	0.00	22.60	0.00	0.00	2.67	0.00	0.00	21.75	-0.15	0.00	20.75	0.00	0.00	2.66	0.00	0.00	23.33	4.55	0.00	25.44	0.00	0.00	2.27	0.00	0.00	23.78	5.73	0.00	23.23	0.00	0.00	0.00	0.00
0.00	0.00	0.00	0.45	18.50	-1.35	22.38	16.16	-18.71	-14.98	-0.86	3.22	0.00	0.00	15.38	0.00	14.37	-14.38	0.00	22.62	0.00	0.00	2.67	0.00	0.00	21.76	-0.15	0.00	20.75	0.00	0.00	2.66	0.00	0.00	23.33	4.53	0.00	25.44	0.00	0.00	2.27	0.00	0.00	23.75	5.73	0.00	23.28	0.00	0.00	0.00	0.00
0.00	0.00	0.00	0.46	18.52	-1.38	22.43	16.21	-18.73	-14.98	-0.86	3.22	0.00	0.00	15.39	0.00	14.32	-14.45	0.00	22.60	0.00	0.00	2.69	0.00	0.00	21.77	-0.15	0.00	20.75	0.00	0.00	2.61	0.00	0.00	23.34	4.56	0.00	25.44	0.00	0.00	2.27	0.00	0.00	23.75	5.74	0.00	23.27	0.00	0.00	0.00	0.00
0.00	0.00	0.00	0.46	18.54	-1.37	22.19	16.07	-18.59	-14.98	-0.85	3.19	0.00	0.00	15.39	0.00	14.36	-14.43	0.00	22.60	0.00	0.00	2.65	0.00	0.00	21.79	-0.17	0.00	20.78	0.00	0.00	2.61	0.00	0.00	23.26	4.57	0.00	25.47	0.00	0.00	2.27	0.00	0.00	23.70	5.73	0.00	23.28	0.00	0.00	0.00	0.00
0.00	0.00	0.00	0.47	18.51	-1.40	21.93	15.92	-18.50	-14.98	-0.87	3.23	0.00	0.00	15.38	0.00	14.37	-14.43	0.00	22.58	0.00	0.00	2.66	0.00	0.00	21.77	-0.17	0.00	20.78	0.00	0.00	2.66	0.00	0.00	23.34	4.54	0.00	25.49	0.00	0.00	2.25	0.00	0.00	23.74	5.73	0.00	23.30	0.00	0.00	0.00	0.00
0.00	0.00	0.00	0.48	18.49	-1.42	22.08	16.00	-18.63	-14.98	-0.86	3.21	0.00	0.00	15.36	0.00	14.39	-14.45	0.00	22.58	0.00	0.00	2.66	0.00	0.00	21.80	-0.16	0.00	20.78	0.00	0.00	2.66	0.00	0.00	23.33	4.54	0.00	25.47	0.00	0.00	2.27	0.00	0.00	23.76	5.74	0.00	23.32	0.00	0.00	0.00	0.00
0.00	0.00	0.00	0.48	18.50	-1.43	21.92	15.94	-18.48	-14.98	-0.86	3.20	0.00	0.00	15.37	0.00	14.37	-14.48	0.00	22.58	0.00	0.00	2.63	0.00	0.00	21.82	-0.17	0.00	20.76	0.00	0.00	2.64	0.00	0.00	23.34	4.58	0.00	25.49	0.00	0.00	2.25	0.00	0.00	23.78	5.74	0.00	23.30	0.00	0.00	0.00	0.00
